<?xml version="1.0"?>
<svg xmlns="http://www.w3.org/2000/svg" id="Capa_1" enable-background="new 0 0 512 512" height="512px" viewBox="0 0 512 512" width="512px"><path d="m487 285.198v-229.564c0-5.331-4.337-9.668-9.668-9.668h-442.664c-5.331 0-9.668 4.337-9.668 9.668v229.564c0 5.332 4.337 9.669 9.668 9.669h42.832c4.142 0 7.5-3.358 7.5-7.5s-3.358-7.5-7.5-7.5h-37.5v-218.902h432v218.901h-359.5c-4.142 0-7.5 3.358-7.5 7.5s3.358 7.5 7.5 7.5h364.832c5.331.001 9.668-4.337 9.668-9.668z" fill="#024444"/><path d="m457 84.771c0-4.855-3.95-8.806-8.806-8.806h-173.732c-4.855 0-8.806 3.95-8.806 8.806v41.027c0 4.855 3.95 8.805 8.806 8.805h173.732c4.855 0 8.806-3.95 8.806-8.805zm-15 34.833h-161.344v-28.639h161.344z" fill="#024444"/><path d="m448.194 154.604h-133.732c-4.143 0-7.5 3.358-7.5 7.5s3.357 7.5 7.5 7.5h133.732c4.143 0 7.5-3.358 7.5-7.5s-3.357-7.5-7.5-7.5z" fill="#024444"/><path d="m455.694 197.104c0-4.142-3.357-7.5-7.5-7.5h-173.732c-4.143 0-7.5 3.358-7.5 7.5s3.357 7.5 7.5 7.5h173.732c4.143 0 7.5-3.358 7.5-7.5z" fill="#024444"/><path d="m274.462 224.604c-4.143 0-7.5 3.358-7.5 7.5s3.357 7.5 7.5 7.5h123.732c4.143 0 7.5-3.358 7.5-7.5s-3.357-7.5-7.5-7.5z" fill="#024444"/><path d="m489.463 20.965h-466.926c-12.427 0-22.537 10.111-22.537 22.537v295.035c0 12.427 10.11 22.537 22.537 22.537h168.433l-13.198 78.703h-8.723c-14.131 0-25.628 11.497-25.628 25.628v17.01c0 4.752 3.866 8.619 8.619 8.619h207.921c4.752 0 8.618-3.866 8.618-8.619v-17.01c0-14.131-11.497-25.628-25.628-25.628h-8.724l-13.197-78.703h120.497c4.143 0 7.5-3.358 7.5-7.5s-3.357-7.5-7.5-7.5h-418.99c-4.156 0-7.537-3.381-7.537-7.537v-295.035c0-4.156 3.381-7.537 7.537-7.537h466.926c4.156 0 7.537 3.381 7.537 7.537v295.035c0 4.156-3.381 7.537-7.537 7.537h-12.936c-4.143 0-7.5 3.358-7.5 7.5s3.357 7.5 7.5 7.5h12.936c12.427 0 22.537-10.11 22.537-22.537v-295.035c0-12.426-10.11-22.537-22.537-22.537zm-244.908 433.812h98.396c5.86 0 10.628 4.768 10.628 10.628v10.628h-195.158v-10.629c0-5.86 4.768-10.628 10.628-10.628h40.505c4.142 0 7.5-3.358 7.5-7.5s-3.358-7.5-7.5-7.5h-16.574l13.169-78.524h99.702l13.167 78.524h-74.464c-4.142 0-7.5 3.358-7.5 7.5s3.359 7.501 7.501 7.501z" fill="#024444"/><path d="m71.41 201.647 12.413 21.499c2.655 4.599 8.343 6.5 13.232 4.422l13.496-5.74c4.645 3.602 9.721 6.536 15.144 8.756l1.775 14.543c.643 5.273 5.134 9.25 10.446 9.25h24.824c5.312 0 9.803-3.977 10.446-9.249l1.775-14.544c5.423-2.22 10.498-5.154 15.144-8.756l13.496 5.74c4.888 2.079 10.577.178 13.233-4.422l12.412-21.499c2.656-4.601 1.457-10.478-2.788-13.671l-11.715-8.815c.754-5.614.804-11.507 0-17.489l11.715-8.815c4.245-3.193 5.444-9.071 2.788-13.672l-12.411-21.498c-2.656-4.601-8.344-6.502-13.233-4.423l-13.496 5.74c-4.646-3.602-9.72-6.536-15.144-8.756l-1.775-14.543c-.643-5.273-5.134-9.25-10.446-9.25h-24.824c-5.312 0-9.803 3.977-10.446 9.249l-1.775 14.544c-5.423 2.22-10.499 5.155-15.144 8.756l-13.497-5.74c-4.888-2.08-10.577-.178-13.232 4.422l-12.413 21.499c-2.655 4.6-1.457 10.477 2.787 13.671l11.716 8.815c-.753 5.601-.805 11.496 0 17.489l-11.717 8.816c-4.243 3.194-5.442 9.071-2.786 13.671zm29.693-22.413c-.991-5.577-1.071-11.61 0-17.638.702-3.954-.84-7.899-4.024-10.296l-10.697-8.048 8.449-14.634 12.325 5.242c3.675 1.564 7.869.922 10.943-1.673 4.546-3.838 9.675-6.804 15.242-8.814 3.783-1.366 6.433-4.676 6.917-8.637l1.621-13.282h16.897l1.621 13.281c.483 3.961 3.133 7.271 6.916 8.637 5.567 2.011 10.696 4.976 15.242 8.813 3.076 2.597 7.269 3.239 10.942 1.675l12.327-5.243 8.449 14.634-10.696 8.047c-3.186 2.397-4.728 6.343-4.024 10.298 1.031 5.798 1.032 11.829 0 17.634-.704 3.956.838 7.903 4.023 10.299l10.696 8.048-8.449 14.634-12.325-5.242c-3.675-1.565-7.87-.923-10.944 1.672-4.547 3.838-9.675 6.804-15.242 8.814-3.783 1.366-6.433 4.675-6.917 8.636l-1.621 13.282h-16.897l-1.621-13.282c-.483-3.961-3.133-7.271-6.916-8.636-5.568-2.011-10.696-4.977-15.242-8.814-3.075-2.596-7.27-3.238-10.942-1.675l-12.327 5.243-8.449-14.634 10.698-8.049c3.185-2.391 4.727-6.336 4.025-10.292z" fill="#024444"/><path d="m150.328 199.54c16.059 0 29.124-13.065 29.124-29.124s-13.065-29.124-29.124-29.124-29.124 13.065-29.124 29.124c.001 16.059 13.066 29.124 29.124 29.124zm0-43.248c7.788 0 14.124 6.336 14.124 14.124s-6.336 14.124-14.124 14.124-14.124-6.336-14.124-14.124c.001-7.788 6.337-14.124 14.124-14.124z" fill="#024444"/><path d="m224.317 312.971c-4.142 0-7.5 3.358-7.5 7.5s3.358 7.5 7.5 7.5h63.367c4.143 0 7.5-3.358 7.5-7.5s-3.357-7.5-7.5-7.5z" fill="#024444"/></svg>
