<?xml version="1.0"?>
<svg xmlns="http://www.w3.org/2000/svg" viewBox="0 0 64 64" width="512px" height="512px"><g id="_7" data-name="7"><path d="M53,16H43V14.19l1.93-4.82a1,1,0,0,0-.1-.93A1,1,0,0,0,44,8H40a1,1,0,0,0-.93.63L39,8.81l-.07-.18A1,1,0,0,0,38,8H34a1,1,0,0,0-.83.44,1,1,0,0,0-.1.93L35,14.19V16H25a3,3,0,0,0-3,3v2H11a3,3,0,0,0-3,3V47a3,3,0,0,0,3,3H23v5H21a1,1,0,0,0,0,2H35a1,1,0,0,0,0-2H33V50H45a3,3,0,0,0,3-3V40h5a3,3,0,0,0,3-3V19A3,3,0,0,0,53,16ZM37,17h0V15h4v3H37Zm3.68-7h1.84l-1.2,3h-.64l-.6-1.5Zm-3.36,0,1.2,3H36.68l-1.2-3ZM31,55H25V50h6Zm15-8a1,1,0,0,1-1,1H11a1,1,0,0,1-1-1V44H46Zm0-5H10V24a1,1,0,0,1,1-1H22V37a3,3,0,0,0,3,3H46Zm8-5a1,1,0,0,1-1,1H25a1,1,0,0,1-1-1V19a1,1,0,0,1,1-1H35v1a1,1,0,0,0,.29.71A1,1,0,0,0,36,20h6a1,1,0,0,0,1-1V18H53a1,1,0,0,1,1,1ZM52,23a1,1,0,0,1-1,1H41a1,1,0,0,1,0-2H51A1,1,0,0,1,52,23ZM38,35a1,1,0,0,1-2,0,4,4,0,0,0-8,0,1,1,0,0,1-2,0,6,6,0,0,1,12,0Zm-6-7a4,4,0,1,0-4-4A4,4,0,0,0,32,28Zm0-6a2,2,0,1,1-2,2A2,2,0,0,1,32,22Zm20,5a1,1,0,0,1-1,1H41a1,1,0,0,1,0-2H51A1,1,0,0,1,52,27Zm0,4a1,1,0,0,1-1,1H45a1,1,0,0,1,0-2h6A1,1,0,0,1,52,31ZM26,46a1,1,0,0,1,1-1h2a1,1,0,0,1,0,2H27A1,1,0,0,1,26,46ZM38,60a1,1,0,0,1-1,1H19a1,1,0,0,1,0-2H37A1,1,0,0,1,38,60Zm6,0a1,1,0,0,1-1,1H41a1,1,0,0,1,0-2h2A1,1,0,0,1,44,60Z" fill="#024444"/></g></svg>
