<?xml version="1.0"?>
<svg xmlns="http://www.w3.org/2000/svg" id="Icons" viewBox="0 0 60 60" width="512" height="512" class=""><g><path d="M56,0H4A4,4,0,0,0,0,4V56a4,4,0,0,0,4,4H56a4,4,0,0,0,4-4V4A4,4,0,0,0,56,0Zm2,56a2,2,0,0,1-2,2H4a2,2,0,0,1-2-2V4A2,2,0,0,1,4,2H56a2,2,0,0,1,2,2Z" data-original="#000000" class="active-path" style="fill:#244440" data-old_color="#000000"/><path d="M54,8H6a2,2,0,0,0-2,2V54a2,2,0,0,0,2,2H54a2,2,0,0,0,2-2V10A2,2,0,0,0,54,8Zm0,46L6,54V10H54Z" data-original="#000000" class="active-path" style="fill:#244440" data-old_color="#000000"/><path d="M12,33H48a3,3,0,0,0,3-3V16a3,3,0,0,0-3-3H12a3,3,0,0,0-3,3V30A3,3,0,0,0,12,33Zm17.3-7.225,3,2.939a1,1,0,1,0,1.4-1.428l-2.269-2.223c.584-.561,1.542-1.488,3.162-3.056L43.586,31H16.425l9.04-8.981ZM49,16V30a1,1,0,0,1-1,1H46.414L36.008,20.593a2.055,2.055,0,0,0-2.878-.007L30,23.66,26.873,20.6a2.088,2.088,0,0,0-2.885,0L13.586,31H12a1,1,0,0,1-1-1V22.941A9.012,9.012,0,0,0,18.941,15H48A1,1,0,0,1,49,16ZM12,15h4.92A7,7,0,0,1,11,20.92V16A1,1,0,0,1,12,15Z" data-original="#000000" class="active-path" style="fill:#244440" data-old_color="#000000"/><path d="M6,6H7A1,1,0,0,0,7,4H6A1,1,0,0,0,6,6Z" data-original="#000000" class="active-path" style="fill:#244440" data-old_color="#000000"/><path d="M11,6h1a1,1,0,0,0,0-2H11a1,1,0,0,0,0,2Z" data-original="#000000" class="active-path" style="fill:#244440" data-old_color="#000000"/><path d="M16,6h1a1,1,0,0,0,0-2H16a1,1,0,0,0,0,2Z" data-original="#000000" class="active-path" style="fill:#244440" data-old_color="#000000"/><path d="M48,6h6a1,1,0,0,0,0-2H48a1,1,0,0,0,0,2Z" data-original="#000000" class="active-path" style="fill:#244440" data-old_color="#000000"/><path d="M48,36H12a1,1,0,0,0,0,2H48a1,1,0,0,0,0-2Z" data-original="#000000" class="active-path" style="fill:#244440" data-old_color="#000000"/><path d="M48,40H37a1,1,0,0,0,0,2H48a1,1,0,0,0,0-2Z" data-original="#000000" class="active-path" style="fill:#244440" data-old_color="#000000"/><path d="M12,42H33a1,1,0,0,0,0-2H12a1,1,0,0,0,0,2Z" data-original="#000000" class="active-path" style="fill:#244440" data-old_color="#000000"/><path d="M48,44H23a1,1,0,0,0,0,2H48a1,1,0,0,0,0-2Z" data-original="#000000" class="active-path" style="fill:#244440" data-old_color="#000000"/><path d="M12,46h7a1,1,0,0,0,0-2H12a1,1,0,0,0,0,2Z" data-original="#000000" class="active-path" style="fill:#244440" data-old_color="#000000"/><path d="M36,48H12a1,1,0,0,0,0,2H36a1,1,0,0,0,0-2Z" data-original="#000000" class="active-path" style="fill:#244440" data-old_color="#000000"/><path d="M41,20a1,1,0,0,1,1,1,1,1,0,0,0,2,0,1,1,0,0,1,1-1,1,1,0,0,0,0-2,2.987,2.987,0,0,0-2,.766A2.987,2.987,0,0,0,41,18a1,1,0,0,0,0,2Z" data-original="#000000" class="active-path" style="fill:#244440" data-old_color="#000000"/></g> </svg>
