<?xml version="1.0"?>
<svg xmlns="http://www.w3.org/2000/svg" xmlns:xlink="http://www.w3.org/1999/xlink" version="1.1" id="Capa_1" x="0px" y="0px" viewBox="0 0 512 512" style="enable-background:new 0 0 512 512;" xml:space="preserve" width="512" height="512" class=""><g><g>
	<g>
		<path d="M264.033,345.362v-30.918c11.77,0.878,15.81,6.5,20.729,6.5c6.501,0,9.312-8.082,9.312-12.122    c0-10.19-18.622-13.527-30.04-13.879v-4.567c0-2.283-2.987-4.392-5.973-4.392c-3.337,0-5.973,2.108-5.973,4.392v4.919    c-17.567,2.284-34.08,11.945-34.08,34.257c0,22.486,18.094,29.337,34.08,35.31v34.958c-15.459-1.757-20.729-13.174-27.405-13.174    c-5.446,0-9.838,7.378-9.838,12.296c0,9.838,15.987,21.257,37.243,21.784v4.919c-0.001,2.283,2.635,4.392,5.972,4.392    c2.987,0,5.973-2.108,5.973-4.392v-5.446c19.675-3.163,33.202-15.636,33.202-37.244    C297.235,359.064,279.668,351.158,264.033,345.362z M253.493,341.498c-8.082-3.163-14.054-6.5-14.054-14.23    c0-6.676,5.27-10.891,14.054-12.297V341.498z M262.627,399.646v-30.568c7.554,3.338,13.176,7.554,13.176,16.162    C275.803,393.496,270.357,398.064,262.627,399.646z" data-original="#000000" class="active-path" data-old_color="#000000" style="fill:#EEEEEE"/>
	</g>
</g><g>
	<g>
		<path d="M187.656,206.463c-4.142,0-7.5,3.358-7.5,7.5v12.376c0,4.142,3.358,7.5,7.5,7.5c4.142,0,7.5-3.358,7.5-7.5v-12.376    C195.156,209.821,191.798,206.463,187.656,206.463z" data-original="#000000" class="active-path" data-old_color="#000000" style="fill:#EEEEEE"/>
	</g>
</g><g>
	<g>
		<path d="M324.424,206.463c-4.142,0-7.5,3.358-7.5,7.5v12.376c0,4.142,3.358,7.5,7.5,7.5c4.142,0,7.5-3.358,7.5-7.5v-12.376    C331.924,209.821,328.566,206.463,324.424,206.463z" data-original="#000000" class="active-path" data-old_color="#000000" style="fill:#EEEEEE"/>
	</g>
</g><g>
	<g>
		<path d="M277.854,219.832c-3.118-2.727-7.857-2.408-10.583,0.71c-2.724,3.116-6.818,4.903-11.231,4.903    c-4.413,0-8.508-1.787-11.232-4.903c-2.726-3.119-7.464-3.437-10.583-0.711s-3.437,7.464-0.71,10.583    c5.573,6.376,13.783,10.032,22.525,10.032s16.952-3.656,22.524-10.031C281.29,227.296,280.972,222.559,277.854,219.832z" data-original="#000000" class="active-path" data-old_color="#000000" style="fill:#EEEEEE"/>
	</g>
</g><g>
	<g>
		<path d="M409.206,428.643c-3.525-2.177-8.146-1.084-10.323,2.439c-13.875,22.461-34.182,39.518-60.354,50.695    C314.877,491.878,287.123,497,256.04,497c-44.385,0-123.323-11.28-153.314-86.828c-16.517-41.604-20.288-92.577-9.84-133.026    c2.731-10.572,6.6-21.286,11.501-31.842c1.744-3.757,0.112-8.217-3.645-9.961c-3.757-1.744-8.217-0.112-9.961,3.645    c-5.283,11.38-9.461,22.956-12.419,34.407c-11.372,44.029-7.476,97.23,10.422,142.312c13.178,33.192,36.101,58.369,68.133,74.83    C184.632,504.779,217.981,512,256.04,512c71.249,0,126.511-25.938,155.605-73.034C413.822,435.442,412.73,430.82,409.206,428.643z    " data-original="#000000" class="active-path" data-old_color="#000000" style="fill:#EEEEEE"/>
	</g>
</g><g>
	<g>
		<path d="M433.715,273.396c-8.395-32.5-26.036-64.592-52.435-95.387c-12.353-14.409-26.192-28.033-41.134-40.495    c-0.541-0.451-6.621-6.316-6.814-6.176c7.108-5.113,11.75-13.449,11.75-22.854c0-11.215-6.595-20.915-16.109-25.435    c14.967-24.27,19.232-41.844,13.025-53.545c-4.638-8.745-14.283-13.178-28.667-13.178c-3.61,0-7.186,0.522-10.788,0.522    c-7.778,0-11.03-2.479-15.954-6.231C280.385,5.886,272.662,0,256.039,0c-16.623,0-24.346,5.886-30.552,10.615    c-4.924,3.752-8.176,6.231-15.951,6.231c-3.602,0-7.18-0.522-10.788-0.522c-14.387,0-24.033,4.434-28.671,13.178    c-6.206,11.7-1.94,29.275,13.028,53.546c-9.514,4.52-16.109,14.22-16.109,25.435c0,9.405,4.642,17.741,11.75,22.855    c-2.274,2.049-4.446,4.235-6.814,6.176c-14.945,12.464-28.785,26.088-41.134,40.495c-9.188,10.716-17.429,21.754-24.497,32.807    c-2.231,3.489-1.211,8.126,2.279,10.358c3.49,2.231,8.128,1.211,10.359-2.278c6.692-10.466,14.514-20.938,23.248-31.125    c11.807-13.774,25.047-26.807,39.353-38.738c4.874-4.065,9.256-9.605,15.052-12.406h118.894c5.858,2.831,10.128,8.3,15.052,12.406    c14.303,11.928,27.543,24.961,39.354,38.738c24.896,29.042,41.483,59.112,49.3,89.376c9.946,38.501,7.182,85.798-7.394,126.519    c-1.396,3.899,0.634,8.192,4.534,9.589c3.85,1.378,8.211-0.686,9.588-4.534C441.469,365.283,444.383,314.694,433.715,273.396z     M183.328,36.531c2.283-4.304,9.645-5.207,15.42-5.207c3.608,0,7.181,0.522,10.788,0.522c12.839,0,19.323-4.941,25.044-9.301    c5.312-4.048,9.901-7.545,21.459-7.545c11.558,0,16.146,3.497,21.458,7.545c5.72,4.36,12.202,9.302,25.047,9.301    c3.603,0,7.181-0.522,10.787-0.522c5.772,0,13.133,0.903,15.416,5.207c5.058,9.534-8.791,32.968-15.833,43.808H199.165    C192.122,69.499,178.272,46.063,183.328,36.531z M316.939,121.627H195.14c-7.248,0-13.144-5.896-13.144-13.144    s5.896-13.144,13.143-13.144h121.8h0.001c7.247,0,13.143,5.896,13.143,13.144C330.083,115.731,324.187,121.627,316.939,121.627z" data-original="#000000" class="active-path" data-old_color="#000000" style="fill:#EEEEEE"/>
	</g>
</g></g> </svg>
