<?xml version="1.0"?>
<svg xmlns="http://www.w3.org/2000/svg" viewBox="0 0 96 96" width="512px" height="512px"><g><g id="Bank"><path d="M80,82H16a6,6,0,0,1-6-6V74a2,2,0,0,1,4,0v2a2,2,0,0,0,2,2H80a2,2,0,0,0,2-2V12a2,2,0,0,0-2-2H16a2,2,0,0,0-2,2V62a2,2,0,0,1-4,0V12a6,6,0,0,1,6-6H80a6,6,0,0,1,6,6V76A6,6,0,0,1,80,82Z" data-original="#000000" class="active-path" data-old_color="#000000" fill="#9FAA8F"/><path d="M75,90H63a2,2,0,0,1-2-2V80a2,2,0,0,1,2-2H75a2,2,0,0,1,2,2v8A2,2,0,0,1,75,90ZM65,86h8V82H65Z" data-original="#000000" class="active-path" data-old_color="#000000" fill="#9FAA8F"/><path d="M33,90H21a2,2,0,0,1-2-2V80a2,2,0,0,1,2-2H33a2,2,0,0,1,2,2v8A2,2,0,0,1,33,90ZM23,86h8V82H23Z" data-original="#000000" class="active-path" data-old_color="#000000" fill="#9FAA8F"/><path d="M71,61H25a6,6,0,0,1-6-6V33a6,6,0,0,1,6-6H71a6,6,0,0,1,6,6V55A6,6,0,0,1,71,61ZM25,31a2,2,0,0,0-2,2V55a2,2,0,0,0,2,2H71a2,2,0,0,0,2-2V33a2,2,0,0,0-2-2Z" data-original="#000000" class="active-path" data-old_color="#000000" fill="#9FAA8F"/><circle cx="52" cy="40" r="3" data-original="#000000" class="active-path" data-old_color="#000000" fill="#9FAA8F"/><circle cx="60" cy="40" r="3" data-original="#000000" class="active-path" data-old_color="#000000" fill="#9FAA8F"/><circle cx="68" cy="40" r="3" data-original="#000000" class="active-path" data-old_color="#000000" fill="#9FAA8F"/><circle cx="52" cy="48" r="3" data-original="#000000" class="active-path" data-old_color="#000000" fill="#9FAA8F"/><circle cx="60" cy="48" r="3" data-original="#000000" class="active-path" data-old_color="#000000" fill="#9FAA8F"/><circle cx="68" cy="48" r="3" data-original="#000000" class="active-path" data-old_color="#000000" fill="#9FAA8F"/><path d="M45,53H27a2,2,0,0,1-2-2V37a2,2,0,0,1,2-2H45a2,2,0,0,1,2,2V51A2,2,0,0,1,45,53ZM29,49H43V39H29Z" data-original="#000000" class="active-path" data-old_color="#000000" fill="#9FAA8F"/><path d="M27,50a2,2,0,0,1-1.41-3.41l11-11a2,2,0,0,1,2.82,2.82l-11,11A2,2,0,0,1,27,50Z" data-original="#000000" class="active-path" data-old_color="#000000" fill="#9FAA8F"/><path d="M34,53a2,2,0,0,1-1.41-3.41l11-11a2,2,0,0,1,2.82,2.82l-11,11A2,2,0,0,1,34,53Z" data-original="#000000" class="active-path" data-old_color="#000000" fill="#9FAA8F"/><circle cx="12" cy="68" r="2" data-original="#000000" class="active-path" data-old_color="#000000" fill="#9FAA8F"/></g></g> </svg>
