<?xml version="1.0"?>
<svg xmlns="http://www.w3.org/2000/svg" id="Layer_1" enable-background="new 0 0 512.001 512.001" height="512" viewBox="0 0 512.001 512.001" width="512"><g><g fill="#020202"><path d="m474.501 159.636h-125.193c-.025-5.602-.18-9.005-.225-9.88-.081-54.219-24.348-91.801-44.714-113.791-22.053-23.812-43.992-34.742-44.915-35.195-2.09-1.026-4.817-1.026-6.906 0-.98.481-24.253 12.082-46.957 37.437-6.469 7.224 4.707 17.231 11.175 10.006 15.978-17.844 32.485-28.354 39.235-32.246 6.55 3.775 22.255 13.763 37.75 30.61 25.744 27.989 39.281 61.258 40.277 98.945-24.613 12.132-55.268 13.65-79.646 13.578-25.462 0-52.995-2.801-76.406-13.628.649-23.735 6.387-45.994 17.079-66.221 4.532-8.574-8.729-15.582-13.262-7.01-12.486 23.623-18.834 49.701-18.875 77.514-.045.871-.2 4.275-.225 9.883h-125.192c-20.678 0-37.5 16.822-37.5 37.5v277.365c0 20.678 16.822 37.5 37.5 37.5h364.833c9.697 0 9.697-15 0-15h-27.419c-9.572-14.58-25.501-23.989-42.372-25.256-.223-9.612-4.432-19.067-11.939-26.101-7.396-6.931-16.915-10.532-26.362-10.267v-71.911c.005-.003.009-.005.014-.008 9.17 19.991 20.037 39.484 20.557 40.415 2.812 5.033 10.282 5.033 13.094 0 5.569-9.965 33.349-60.633 33.349-79.521 0-17.239-11.187-32.442-27.198-37.822 2.879-12.487 5.225-24.425 7.134-35.68h155.81v223.651c0 12.407-10.093 22.5-22.5 22.5h-24.833c-9.697 0-9.697 15 0 15h24.833c20.678 0 37.5-16.822 37.5-37.5v-277.367c-.002-20.678-16.824-37.5-37.501-37.5zm-220.144 14.463c26.897.089 54.802-1.748 79.912-12.227-.117 24.364-2.868 85.093-24.332 157.378-2.935 9.885-8.427 18.618-15.771 25.42 1.094-4.049 1.73-7.627 1.73-10.478 0-21.999-17.897-39.896-39.896-39.896s-39.896 17.897-39.896 39.896c0 2.85.636 6.427 1.729 10.475-7.339-6.793-12.829-15.511-15.771-25.418-21.492-72.378-24.214-133.336-24.326-157.587 13.346 5.215 38.672 12.437 76.621 12.437zm-66.673 149.421c3.451 11.624 9.672 21.966 17.973 30.267-4.928 11.026-10.716 22.429-15.055 30.686-17.976-33.843-24.855-54.593-24.855-60.121 0-10.323 6.422-19.476 15.763-23.166 1.869 7.293 3.921 14.746 6.174 22.334zm43.421 10.673c0-13.728 11.168-24.896 24.896-24.896s24.896 11.168 24.896 24.896c0 5.532-6.89 26.309-24.896 60.197-18.006-33.888-24.896-54.665-24.896-60.197zm-193.604-159.557h125.418c.488 14.974 1.902 35.983 5.539 61.214h-153.457v-38.714c0-12.407 10.093-22.5 22.5-22.5zm-22.5 299.865v-223.651h155.81c1.908 11.255 4.255 23.192 7.134 35.68-16.011 5.38-27.198 20.583-27.198 37.822 0 18.888 27.78 69.556 33.349 79.521 2.812 5.033 10.282 5.033 13.094 0 .514-.92 11.375-20.405 20.548-40.398.007.005.015.009.023.014v71.886c-9.436-.255-18.94 3.321-26.315 10.231-7.528 7.054-11.753 16.521-11.982 26.136-16.905 1.259-32.85 10.67-42.408 25.259h-99.555c-12.407 0-22.5-10.093-22.5-22.5zm295.347-17.911c6.053 5.671 8.513 13.459 6.58 20.833-.595 5.918 2.077 9.039 8.017 9.363 11-1.129 22.057 2.792 30.364 10.215h-198.661c8.304-7.425 19.375-11.346 30.408-10.215 5.939-.324 8.611-3.445 8.017-9.363-1.932-7.37.546-15.173 6.628-20.872 6.046-5.666 13.969-7.614 21.189-5.21 5.718.995 9.007-1.377 9.869-7.116v-62.582c7.024 14.566 14.16 27.535 16.695 32.071 2.812 5.033 10.282 5.033 13.094 0 2.535-4.536 9.671-17.505 16.695-32.071v62.582c.861 5.739 4.151 8.111 9.869 7.116 7.221-2.406 15.162-.443 21.236 5.249zm35.907-132.239c0 5.528-6.879 26.278-24.855 60.122-4.341-8.259-10.132-19.668-15.065-30.707 8.305-8.31 14.54-18.65 17.983-30.246 2.253-7.588 4.305-15.041 6.175-22.335 9.34 3.69 15.762 12.843 15.762 23.166zm-2.711-88.501c3.638-25.231 5.051-46.24 5.539-61.214h125.418c12.407 0 22.5 10.093 22.5 22.5v38.714z" data-original="#020202" class="active-path" data-old_color="#020202" style="fill:#EEEEEE"/><path d="m47.501 212.743c9.652 0 9.668-15 0-15-9.652 0-9.668 15 0 15z" data-original="#020202" class="active-path" data-old_color="#020202" style="fill:#EEEEEE"/><path d="m79.001 212.743c9.652 0 9.668-15 0-15-9.652 0-9.668 15 0 15z" data-original="#020202" class="active-path" data-old_color="#020202" style="fill:#EEEEEE"/><path d="m110.501 212.743c9.652 0 9.668-15 0-15-9.652 0-9.668 15 0 15z" data-original="#020202" class="active-path" data-old_color="#020202" style="fill:#EEEEEE"/><path d="m256.001 269.931c21.32 0 38.665-17.345 38.665-38.665s-17.345-38.666-38.665-38.666-38.665 17.345-38.665 38.666c-.001 21.32 17.345 38.665 38.665 38.665zm0-62.33c13.049 0 23.665 10.616 23.665 23.666 0 13.049-10.616 23.665-23.665 23.665s-23.665-10.616-23.665-23.665c-.001-13.05 10.616-23.666 23.665-23.666z" data-original="#020202" class="active-path" data-old_color="#020202" style="fill:#EEEEEE"/><path d="m49.001 318.501h50c9.697 0 9.697-15 0-15h-50c-9.698 0-9.698 15 0 15z" data-original="#020202" class="active-path" data-old_color="#020202" style="fill:#EEEEEE"/><path d="m49.001 359.501h70c9.697 0 9.697-15 0-15h-70c-9.698 0-9.698 15 0 15z" data-original="#020202" class="active-path" data-old_color="#020202" style="fill:#EEEEEE"/><path d="m49.001 400.501h90c9.697 0 9.697-15 0-15h-90c-9.698 0-9.698 15 0 15z" data-original="#020202" class="active-path" data-old_color="#020202" style="fill:#EEEEEE"/><path d="m119.001 426.501h-70c-9.697 0-9.697 15 0 15h70c9.697 0 9.697-15 0-15z" data-original="#020202" class="active-path" data-old_color="#020202" style="fill:#EEEEEE"/><path d="m461.001 318.501c9.697 0 9.697-15 0-15h-50c-9.697 0-9.697 15 0 15z" data-original="#020202" class="active-path" data-old_color="#020202" style="fill:#EEEEEE"/><path d="m383.501 352.001c0 4.142 3.358 7.5 7.5 7.5h70c9.697 0 9.697-15 0-15h-70c-4.143 0-7.5 3.358-7.5 7.5z" data-original="#020202" class="active-path" data-old_color="#020202" style="fill:#EEEEEE"/><path d="m363.501 393.001c0 4.142 3.358 7.5 7.5 7.5h90c9.697 0 9.697-15 0-15h-90c-4.143 0-7.5 3.358-7.5 7.5z" data-original="#020202" class="active-path" data-old_color="#020202" style="fill:#EEEEEE"/><path d="m391.001 441.501h70c9.697 0 9.697-15 0-15h-70c-9.698 0-9.698 15 0 15z" data-original="#020202" class="active-path" data-old_color="#020202" style="fill:#EEEEEE"/></g></g> </svg>
